<svg xmlns="http://www.w3.org/2000/svg" xmlns:xlink="http://www.w3.org/1999/xlink" viewBox="872 520 176.1 37.9"><defs><style>.a{fill:#cd5b51;}.b{fill:#3f56a1;}.c{fill:#fff;}.d{fill:url(#a);}.e{fill:url(#b);}.f{fill:url(#c);}.g{fill:url(#d);}.h{fill:#868685;}</style><linearGradient id="a" x1="0.497" y1="-0.024" x2="0.497" y2="1.006" gradientUnits="objectBoundingBox"><stop offset="0" stop-color="#868685" stop-opacity="0.4"/><stop offset="1" stop-color="#868685"/></linearGradient><linearGradient id="b" x1="0.505" y1="-0.024" x2="0.505" y2="1.011" xlink:href="#a"/><linearGradient id="c" x1="0.367" y1="0.92" x2="0.575" y2="0.339" gradientUnits="objectBoundingBox"><stop offset="0.004" stop-color="#d1d1d1"/><stop offset="0.396" stop-color="#d1d1d1" stop-opacity="0.102"/><stop offset="0.632" stop-color="#d1d1d1" stop-opacity="0"/></linearGradient><linearGradient id="d" x1="0.812" y1="0.138" x2="0.222" y2="0.855" gradientUnits="objectBoundingBox"><stop offset="0" stop-color="#d1d1d1"/><stop offset="0.622" stop-color="#d1d1d1" stop-opacity="0.102"/><stop offset="0.882" stop-color="#d1d1d1" stop-opacity="0"/></linearGradient></defs><g transform="translate(872 520)"><path class="a" d="M118.1,12.7l-2.3,6.2,4,10.7h4.7Z"/><path class="a" d="M127.3,29.6h4.6L121.8,2.9,119.5,9Z"/><path class="b" d="M0,.6V29.5H8.4V.6Z"/><path class="b" d="M33.5,19.1h0c-1.8,2.2-3.6,3.5-6.6,3.5-3.9,0-6.8-3.2-6.8-7.6h0c0-4.3,2.9-7.5,6.8-7.5,2.5,0,4.4,1,6.3,3.3l.1.1,6.3-4.8L39.5,6c-3-4-7.1-6-12.5-6C18.1,0,11.5,6.5,11.5,15.1v.1a15.044,15.044,0,0,0,4.4,10.7,15.3,15.3,0,0,0,10.7,4.2c5.7,0,9.7-2,13-6.5l.1-.1-6.2-4.4Z"/><path class="b" d="M58.9,11c0,2.2-1.7,3.4-4.5,3.4H50.7V7.3h3.7c2.9,0,4.5,1.3,4.5,3.7ZM55,.6H41.3v29h9.4V21.4h3.9c7.8,0,12.7-4,12.7-10.5v-.1C67.3,4.5,62.6.6,55,.6Z"/><path class="b" d="M89.4.6V15.5L77.6.6H69.8V29.5h8.3V14L90.3,29.5h7.1V.6Z"/><path class="b" d="M120.9.5H110.4l-11,29H110Z"/><path class="b" d="M0,37.8V34.1H.7v3.7Z"/><path class="b" d="M4,37.8l-1.4-2c-.1-.1-.2-.3-.3-.4v2.4H1.6V34.1h.7l1.3,2c.1.1.2.3.3.4V34.1h.7v3.7Z"/><path class="b" d="M6.7,37.8a1.613,1.613,0,0,1-1.4-.7l.5-.5a.957.957,0,0,0,.9.5c.4,0,.6-.1.6-.4,0-.2-.1-.3-.8-.5s-1.2-.4-1.2-1.1A1.32,1.32,0,0,1,6.7,34a1.486,1.486,0,0,1,1.3.6l-.5.5a1.234,1.234,0,0,0-.8-.4c-.4,0-.5.2-.5.3,0,.2.2.3.8.5.6.1,1.2.3,1.2,1.1-.1.8-.5,1.2-1.5,1.2Z"/><path class="b" d="M10.2,34.8v3H9.5v-3H8.4v-.7h2.9v.7Z"/><path class="b" d="M11.9,37.8V34.1h.7v3.7Z"/><path class="b" d="M15.1,34.8v3h-.8v-3h-1v-.7h2.8v.7Z"/><path class="b" d="M18.2,37.8c-.9,0-1.5-.6-1.5-1.7V34h.7v2.1c0,.6.3,1,.8,1s.8-.4.8-1V34h.7v2.1c0,1.1-.6,1.7-1.5,1.7Z"/><path class="b" d="M22,34.8v3h-.7v-3H20.2v-.7h2.9v.7Z"/><path class="b" d="M24.9,34.8c-.6,0-.8.5-.8,1.2s.2,1.2.8,1.2.8-.5.8-1.2c.1-.7-.2-1.2-.8-1.2Zm0,3c-1,0-1.6-.8-1.6-1.9s.6-1.9,1.6-1.9,1.6.8,1.6,1.9-.6,1.9-1.6,1.9Z"/><path class="b" d="M30.7,35.2c-.1-.3-.3-.4-.7-.4-.6,0-.9.5-.9,1.2s.3,1.2.9,1.2c.3,0,.5-.1.7-.5l.6.4a1.486,1.486,0,0,1-1.4.8c-1,0-1.6-.7-1.6-1.9a1.728,1.728,0,0,1,1.6-1.9,1.486,1.486,0,0,1,1.4.8l-.6.3Z"/><path class="b" d="M33.4,37.8c-.9,0-1.5-.6-1.5-1.7V34h.7v2.1c0,.6.3,1,.8,1s.8-.4.8-1V34h.7v2.1c0,1.1-.6,1.7-1.5,1.7Z"/><path class="b" d="M35.7,37.8V34.1h.7V37h1.9v.8Z"/><path class="b" d="M39.7,34.8v3H39v-3H37.9v-.7h2.8v.7Z"/><path class="b" d="M42.8,37.8c-.9,0-1.5-.6-1.5-1.7V34H42v2.1c0,.6.3,1,.7,1,.5,0,.8-.4.8-1V34h.7v2.1c.1,1.1-.4,1.7-1.4,1.7Z"/><path class="b" d="M46.8,34.8h-1v1h1a.472.472,0,0,0,.5-.5c0-.4-.2-.5-.5-.5Zm.4,3-.7-1.3h-.8v1.3H45V34.1h1.7A1.181,1.181,0,0,1,48,35.3a1.008,1.008,0,0,1-.7,1.1l.7,1.4Z"/><path class="b" d="M50.4,35.6c-.1-.2-.1-.4-.2-.6a2.073,2.073,0,0,1-.2.6l-.2.7h.8l-.2-.7Zm.7,2.2-.3-.8H49.4l-.3.8h-.8l1.4-3.7h.7l1.4,3.7Z"/><path class="b" d="M52.5,37.8V34.1h.7V37h1.9v.8Z"/><path class="b" d="M58.6,34.8h-.8v1h.9a.472.472,0,0,0,.5-.5c0-.4-.2-.5-.6-.5Zm0,1.7h-.8v1.3H57V34.1h1.6a1.181,1.181,0,0,1,1.3,1.2c0,.8-.5,1.2-1.3,1.2Z"/><path class="b" d="M60.5,37.8V34.1h2.6v.7H61.2v.8h1.1v.7H61.2V37h2v.8Z"/><path class="b" d="M97.9,37.8V34.1h2.5v.7H98.6v.8h1.1v.7H98.6V37h1.9v.8Z"/><path class="b" d="M109.3,37.8V34.1h2.6v.7H110v.8h1.1v.7H110V37h1.9v.8Z"/><path class="b" d="M65.5,34.8h-1v1h1a.472.472,0,0,0,.5-.5c.1-.4-.1-.5-.5-.5Zm.5,3-.7-1.3h-.8v1.3h-.7V34.1h1.7a1.181,1.181,0,0,1,1.3,1.2,1.008,1.008,0,0,1-.7,1.1l.7,1.4Z"/><path class="b" d="M68.9,37.8c-.9,0-1.5-.6-1.5-1.7V34h.7v2.1c0,.6.3,1,.7,1,.5,0,.8-.4.8-1V34h.7v2.1a1.371,1.371,0,0,1-1.4,1.7Z"/><path class="b" d="M72.7,35.6c-.1-.2-.1-.4-.2-.6a2.073,2.073,0,0,1-.2.6l-.2.7H73l-.3-.7Zm.7,2.2-.3-.8H71.8l-.3.8h-.8l1.4-3.7h.7l1.4,3.7Z"/><path class="b" d="M77.2,37.8l-1.4-2c-.1-.1-.2-.3-.3-.4v2.4h-.7V34.1h.7l1.3,2c.1.1.2.3.3.4V34.1h.7v3.7Z"/><path class="b" d="M80.1,34.8c-.6,0-.8.5-.8,1.2s.2,1.2.8,1.2.8-.5.8-1.2-.3-1.2-.8-1.2Zm0,3c-1,0-1.6-.8-1.6-1.9s.6-1.9,1.6-1.9,1.6.8,1.6,1.9a1.728,1.728,0,0,1-1.6,1.9Z"/><path class="b" d="M86,37.8l-1.4-2c-.1-.1-.2-.3-.3-.4v2.4h-.7V34.1h.7l1.3,2c.1.1.2.3.3.4V34.1h.7v3.7Z"/><path class="b" d="M88.9,34.8c-.6,0-.8.5-.8,1.2s.2,1.2.8,1.2.9-.5.9-1.2-.3-1.2-.9-1.2Zm0,3c-1,0-1.6-.8-1.6-1.9s.6-1.9,1.6-1.9,1.6.8,1.6,1.9-.6,1.9-1.6,1.9Z"/><path class="b" d="M92.8,34.8h-1v1h1a.472.472,0,0,0,.5-.5c.1-.4-.1-.5-.5-.5Zm.5,3-.7-1.3h-.8v1.3h-.7V34.1h1.7a1.181,1.181,0,0,1,1.3,1.2,1.008,1.008,0,0,1-.7,1.1l.7,1.4Z"/><path class="b" d="M96.2,34.8v3h-.7v-3H94.4v-.7h2.9v.7Z"/><path class="b" d="M102.9,35.6c-.1-.2-.1-.4-.2-.6a2.073,2.073,0,0,1-.2.6l-.2.7h.8l-.2-.7Zm.7,2.2-.3-.8H102l-.3.8h-.8l1.4-3.7h.7l1.4,3.7Z"/><path class="b" d="M107.7,37.8V35.6a3.33,3.33,0,0,0-.3.6l-.8,1.6-.7-1.6a3.329,3.329,0,0,0-.3-.6v2.2H105V34.1h.7l.8,1.7a3.329,3.329,0,0,0,.3.6c0-.1.2-.4.2-.6l.7-1.7h.7v3.7Z"/><path class="b" d="M114.3,34.8h-1v1h1a.472.472,0,0,0,.5-.5c.1-.4-.1-.5-.5-.5Zm.5,3-.7-1.3h-.7v1.3h-.7V34.1h1.7a1.181,1.181,0,0,1,1.3,1.2,1.008,1.008,0,0,1-.7,1.1l.7,1.4Z"/><path class="b" d="M116.3,37.8V34.1h.8v3.7Z"/><path class="b" d="M120.1,35.2c-.1-.3-.3-.4-.7-.4-.6,0-.9.5-.9,1.2s.3,1.2.9,1.2c.3,0,.5-.1.7-.5l.6.4a1.486,1.486,0,0,1-1.4.8c-1,0-1.6-.7-1.6-1.9a1.74,1.74,0,0,1,1.7-1.9,1.252,1.252,0,0,1,1.3.8l-.6.3Z"/><path class="b" d="M123,35.6a1.421,1.421,0,0,1-.2-.6,2.073,2.073,0,0,1-.2.6l-.2.7h.8l-.2-.7Zm.7,2.2-.3-.8H122l-.3.8H121l1.4-3.7h.7l1.4,3.7Z"/><path class="b" d="M127.4,37.8l-1.4-2c-.1-.1-.2-.3-.3-.4v2.4H125V34.1h.7l1.3,2c.1.1.2.3.3.4V34.1h.7v3.7Z"/><path class="b" d="M130.3,34.8c-.6,0-.8.5-.8,1.2s.3,1.2.8,1.2c.6,0,.8-.5.8-1.2.1-.7-.2-1.2-.8-1.2Zm0,3c-1,0-1.6-.8-1.6-1.9s.6-1.9,1.6-1.9,1.6.8,1.6,1.9-.6,1.9-1.6,1.9Z"/><path class="c" d="M110.2,11.2l.9,2.7H114l-2.3,1.7.8,2.7-2.3-1.6-2.3,1.6.9-2.7-2.3-1.7h2.9Z"/><path class="c" d="M113.6,2.3l.9,2.7h2.9l-2.3,1.7.8,2.7-2.3-1.7-2.3,1.7.9-2.7L109.9,5h2.8Z"/><path class="c" d="M106.9,20.1l.9,2.7h2.8l-2.3,1.7.9,2.7-2.3-1.7-2.3,1.7.9-2.7-2.3-1.7H106Z"/><path class="a" d="M162,37.8V35.2H145.8l2,2.6Z"/><path class="d" d="M160.9,10.1c0-5.7,2.8-9.5,7.6-9.5s7.6,3.8,7.6,9.5-2.8,9.5-7.6,9.5C163.7,19.5,160.9,15.8,160.9,10.1Zm11.2,0c0-4.2-1.3-6.3-3.6-6.3q-3.6,0-3.6,6.3c0,4.2,1.3,6.3,3.6,6.3S172.1,14.2,172.1,10.1Z"/><path class="e" d="M144.6,14.5c0-2.3,1.8-3.9,4-4.8-2-1-3.2-2.1-3.2-4.5,0-2.3,2.2-4.6,6.5-4.6,4.4,0,6.5,2.3,6.5,4.6a4.653,4.653,0,0,1-3.2,4.3c2.3,1,4,2.2,4,4.9,0,3.1-2.7,5.1-7.3,5.1C147.4,19.5,144.6,17.6,144.6,14.5Zm10.7-.2c0-1.4-1.1-2.2-3.6-3.2-1.9.9-3,1.9-3,3.2,0,1.4,1.2,2.5,3.3,2.5S155.3,15.7,155.3,14.3Zm-.7-8.7c0-1-.7-2.1-2.6-2.1s-2.6,1.1-2.6,2.1c0,1.4,1.1,2,2.9,2.7C153.9,7.4,154.6,6.7,154.6,5.6Z"/><path class="f" d="M154.6,5.6c0,1.2-.7,1.9-2.3,2.7l3.1,1.3c2-.9,3.2-2.4,3.2-4.3a3.287,3.287,0,0,0-.4-1.7c-1.2.2-2.8.6-3.9.9A2.9,2.9,0,0,1,154.6,5.6Z"/><path class="g" d="M148.7,14.3c0-1.3,1.1-2.3,3-3.2l-3-1.4c-2.2.9-4,2.5-4,4.8a4.548,4.548,0,0,0,1,2.8h3.8c.3,0,.3-.6.3-1.1A2.4,2.4,0,0,1,148.7,14.3Z"/><path class="h" d="M145.3,29.8l2.2-6.3h1l2.2,6.3h-1.1l-.5-1.5h-2.3l-.5,1.5Zm1.8-2.4h1.7l-.8-2.5h0Z"/><path class="h" d="M153.9,29.8V23.5h1l2.9,4.5h0V23.5h1v6.3h-.9l-3-4.6h0v4.6Zm1.9-7.1c-.2,0-.3.1-.3.5h-.6q0-1.2.9-1.2c.5,0,.8.5,1.2.5.2,0,.3-.1.3-.5h.6q0,1.2-.9,1.2C156.5,23.2,156.2,22.7,155.8,22.7Z"/><path class="h" d="M162.2,26.7c0-2.1,1.2-3.2,2.8-3.2,1.5,0,2.7,1.1,2.7,3.2s-1.2,3.2-2.7,3.2S162.2,28.8,162.2,26.7Zm4.5,0c0-1.5-.7-2.3-1.7-2.3s-1.7.8-1.7,2.3S164,29,165,29C166,28.9,166.7,28.1,166.7,26.7Z"/><path class="h" d="M170.8,28.3l.8-.4a1.848,1.848,0,0,0,1.7,1.1c.7,0,1.2-.2,1.2-.8,0-.5-.4-.8-1.4-1.1-1.2-.4-2.1-.7-2.1-1.9,0-1.1.8-1.8,2.1-1.8a2.488,2.488,0,0,1,2.3,1.3l-.7.5a1.763,1.763,0,0,0-1.5-.9c-.7,0-1.1.3-1.1.7,0,.6.4.8,1.4,1.1,1.2.3,2.1.7,2.1,1.9,0,1-.8,1.8-2.3,1.8A2.274,2.274,0,0,1,170.8,28.3Z"/></g></svg>